<?xml version="1.0" encoding="utf-8"?>
<!-- Generator: Adobe Illustrator 19.2.0, SVG Export Plug-In . SVG Version: 6.00 Build 0)  -->
<svg version="1.1" id="Layer_1" xmlns="http://www.w3.org/2000/svg" xmlns:xlink="http://www.w3.org/1999/xlink" x="0px" y="0px"
	 viewBox="0 0 169 18.9" style="enable-background:new 0 0 169 18.9;" xml:space="preserve">
<style type="text/css">
	.st0{fill:#4585F2;}
	.st1{fill:#383838;}
</style>
<g>
	<path class="st0" d="M1.1,16.9V1.7h4.9c1,0,1.9,0.1,2.6,0.4s1.4,0.6,1.8,1C11,3.5,11.4,4,11.6,4.6C11.8,5.2,12,5.8,12,6.6
		c0,0.7-0.1,1.4-0.4,2c-0.2,0.6-0.6,1.1-1.1,1.6c-0.5,0.4-1.1,0.8-1.8,1s-1.6,0.4-2.6,0.4H4v5.4H1.1z M4,9.4h2.1
		c0.5,0,1-0.1,1.4-0.2s0.7-0.3,1-0.6c0.3-0.2,0.4-0.5,0.6-0.9C9.1,7.4,9.1,7,9.1,6.6c0-0.4-0.1-0.8-0.2-1.1C8.8,5.1,8.6,4.8,8.4,4.6
		s-0.6-0.4-1-0.5S6.6,3.9,6.1,3.9H4V9.4z"/>
	<path class="st0" d="M11.1,16.9l6-15.2h2.9l6,15.2h-2.2c-0.2,0-0.4-0.1-0.6-0.2c-0.2-0.1-0.3-0.3-0.3-0.5l-1.1-3.1h-6.3l-1.1,3.1
		c-0.1,0.2-0.2,0.3-0.3,0.4c-0.2,0.1-0.4,0.2-0.6,0.2H11.1z M16,11.2h4.8L19,6.1c-0.1-0.2-0.2-0.5-0.3-0.8c-0.1-0.3-0.2-0.6-0.3-1
		c-0.1,0.4-0.2,0.7-0.3,1S18,5.9,17.9,6.1L16,11.2z"/>
	<path class="st0" d="M23.9,1.7h2.5c0.2,0,0.4,0.1,0.6,0.2c0.1,0.1,0.3,0.3,0.4,0.5l2.8,5.1c0.2,0.3,0.3,0.6,0.4,0.9
		c0.1,0.3,0.2,0.5,0.3,0.8c0.1-0.3,0.2-0.5,0.3-0.8s0.3-0.6,0.4-0.8l2.8-5.1c0.1-0.2,0.2-0.3,0.3-0.4c0.2-0.1,0.4-0.2,0.6-0.2h2.5
		L32.3,11v5.9h-2.8V11L23.9,1.7z"/>
	<path class="st0" d="M39.3,16.9V1.7h9.6V4h-6.7v4.2h5.3v2.2h-5.3v4.3h6.7v2.2H39.3z"/>
	<path class="st0" d="M51.4,16.9V1.7H56c1,0,1.9,0.1,2.7,0.3c0.7,0.2,1.3,0.5,1.8,0.9s0.8,0.8,1,1.4c0.2,0.5,0.3,1.1,0.3,1.8
		c0,0.5-0.1,1-0.2,1.5C61.5,8,61.3,8.4,61,8.8s-0.6,0.7-1.1,1c-0.4,0.3-0.9,0.5-1.4,0.7c0.4,0.2,0.7,0.5,0.9,0.9l3.8,5.6h-2.5
		c-0.2,0-0.5,0-0.6-0.1c-0.2-0.1-0.3-0.2-0.4-0.4l-3.2-4.9c-0.1-0.2-0.2-0.3-0.4-0.4C55.9,11,55.7,11,55.4,11h-1.2v5.9H51.4z
		 M54.2,8.9H56c0.5,0,1-0.1,1.4-0.2c0.4-0.1,0.7-0.3,1-0.6c0.3-0.2,0.4-0.5,0.6-0.8s0.2-0.7,0.2-1.1c0-0.8-0.3-1.4-0.8-1.8
		c-0.5-0.4-1.3-0.6-2.3-0.6h-1.8V8.9z"/>
	<path class="st1" d="M68.2,9.3c0-1.1,0.2-2.2,0.6-3.1c0.4-1,0.9-1.8,1.6-2.5s1.5-1.2,2.5-1.6s2.1-0.6,3.3-0.6
		c1.2,0,2.3,0.2,3.2,0.5c0.9,0.4,1.7,0.8,2.3,1.4l-0.8,1.3c-0.2,0.3-0.4,0.4-0.6,0.4c-0.2,0-0.3-0.1-0.5-0.2
		c-0.2-0.1-0.5-0.3-0.7-0.4c-0.2-0.1-0.5-0.2-0.8-0.3c-0.3-0.1-0.6-0.2-0.9-0.2C76.9,4,76.5,3.9,76,3.9c-0.8,0-1.4,0.1-2,0.4
		s-1.1,0.6-1.6,1.1s-0.8,1-1,1.7c-0.2,0.7-0.4,1.4-0.4,2.2c0,0.9,0.1,1.7,0.4,2.3c0.2,0.7,0.6,1.3,1,1.7c0.4,0.5,1,0.8,1.6,1.1
		c0.6,0.2,1.3,0.4,2,0.4c0.6,0,1.2-0.1,1.7-0.2c0.5-0.1,0.9-0.3,1.3-0.5v-2.7h-1.9c-0.2,0-0.3-0.1-0.4-0.2s-0.2-0.2-0.2-0.4V9.3h5
		v6.1c-0.4,0.3-0.8,0.5-1.2,0.7c-0.4,0.2-0.9,0.4-1.3,0.5c-0.5,0.1-1,0.2-1.5,0.3c-0.5,0.1-1.1,0.1-1.7,0.1c-1.1,0-2.1-0.2-3.1-0.6
		c-0.9-0.4-1.7-0.9-2.4-1.6c-0.7-0.7-1.2-1.5-1.6-2.5C68.4,11.5,68.2,10.4,68.2,9.3z"/>
	<path class="st1" d="M84.3,16.9V1.7h2.8v12.9h6.1v2.3H84.3z"/>
	<path class="st1" d="M93.6,16.9l6-15.2h2.9l6,15.2h-2.2c-0.2,0-0.4-0.1-0.6-0.2c-0.2-0.1-0.3-0.3-0.3-0.5l-1.1-3.1h-6.3l-1.1,3.1
		c-0.1,0.2-0.2,0.3-0.3,0.4c-0.2,0.1-0.4,0.2-0.6,0.2H93.6z M98.6,11.2h4.8l-1.9-5.1c-0.1-0.2-0.2-0.5-0.3-0.8
		c-0.1-0.3-0.2-0.6-0.3-1c-0.1,0.4-0.2,0.7-0.3,1s-0.2,0.6-0.3,0.8L98.6,11.2z"/>
	<path class="st1" d="M108.9,15.1l0.8-1.4c0.1-0.1,0.2-0.2,0.3-0.2s0.2-0.1,0.4-0.1c0.2,0,0.4,0.1,0.6,0.2c0.2,0.1,0.4,0.3,0.7,0.5
		c0.3,0.2,0.6,0.3,1,0.5c0.4,0.1,0.8,0.2,1.3,0.2c0.8,0,1.4-0.2,1.9-0.6c0.4-0.4,0.7-0.9,0.7-1.6c0-0.4-0.1-0.7-0.3-1
		c-0.2-0.3-0.5-0.5-0.8-0.6c-0.3-0.2-0.7-0.3-1.1-0.4s-0.8-0.3-1.3-0.4c-0.4-0.1-0.9-0.3-1.3-0.5c-0.4-0.2-0.8-0.4-1.1-0.8
		c-0.3-0.3-0.6-0.7-0.8-1.2c-0.2-0.5-0.3-1-0.3-1.7c0-0.6,0.1-1.1,0.3-1.6c0.2-0.5,0.5-1,1-1.4c0.4-0.4,1-0.7,1.6-1
		c0.6-0.2,1.3-0.4,2.1-0.4c0.9,0,1.7,0.1,2.5,0.4c0.8,0.3,1.4,0.7,1.9,1.2l-0.7,1.3c-0.1,0.2-0.2,0.3-0.3,0.3
		c-0.1,0.1-0.2,0.1-0.4,0.1c-0.1,0-0.3-0.1-0.5-0.2c-0.2-0.1-0.4-0.2-0.6-0.4S116,4.1,115.6,4c-0.3-0.1-0.7-0.2-1.1-0.2
		c-0.4,0-0.7,0-1,0.1c-0.3,0.1-0.5,0.2-0.7,0.4c-0.2,0.2-0.3,0.4-0.4,0.6s-0.1,0.5-0.1,0.8c0,0.4,0.1,0.6,0.3,0.9s0.5,0.4,0.8,0.6
		s0.7,0.3,1.1,0.5c0.4,0.1,0.8,0.3,1.3,0.4s0.9,0.3,1.3,0.5c0.4,0.2,0.8,0.5,1.1,0.8c0.3,0.3,0.6,0.7,0.8,1.1c0.2,0.4,0.3,1,0.3,1.6
		c0,0.7-0.1,1.3-0.4,1.9s-0.6,1.1-1,1.6c-0.5,0.4-1,0.8-1.7,1s-1.4,0.4-2.3,0.4c-0.5,0-1,0-1.4-0.1c-0.5-0.1-0.9-0.2-1.4-0.4
		c-0.4-0.2-0.8-0.4-1.2-0.6C109.5,15.6,109.2,15.4,108.9,15.1z"/>
	<path class="st1" d="M120.1,15.1l0.8-1.4c0.1-0.1,0.2-0.2,0.3-0.2s0.2-0.1,0.4-0.1c0.2,0,0.4,0.1,0.6,0.2c0.2,0.1,0.4,0.3,0.7,0.5
		c0.3,0.2,0.6,0.3,1,0.5c0.4,0.1,0.8,0.2,1.3,0.2c0.8,0,1.4-0.2,1.9-0.6c0.4-0.4,0.7-0.9,0.7-1.6c0-0.4-0.1-0.7-0.3-1
		c-0.2-0.3-0.5-0.5-0.8-0.6c-0.3-0.2-0.7-0.3-1.1-0.4s-0.8-0.3-1.3-0.4c-0.4-0.1-0.9-0.3-1.3-0.5c-0.4-0.2-0.8-0.4-1.1-0.8
		c-0.3-0.3-0.6-0.7-0.8-1.2c-0.2-0.5-0.3-1-0.3-1.7c0-0.6,0.1-1.1,0.3-1.6c0.2-0.5,0.5-1,1-1.4c0.4-0.4,1-0.7,1.6-1
		c0.6-0.2,1.3-0.4,2.1-0.4c0.9,0,1.7,0.1,2.5,0.4c0.8,0.3,1.4,0.7,1.9,1.2l-0.7,1.3c-0.1,0.2-0.2,0.3-0.3,0.3
		c-0.1,0.1-0.2,0.1-0.4,0.1c-0.1,0-0.3-0.1-0.5-0.2c-0.2-0.1-0.4-0.2-0.6-0.4s-0.5-0.2-0.8-0.4c-0.3-0.1-0.7-0.2-1.1-0.2
		c-0.4,0-0.7,0-1,0.1c-0.3,0.1-0.5,0.2-0.7,0.4c-0.2,0.2-0.3,0.4-0.4,0.6s-0.1,0.5-0.1,0.8c0,0.4,0.1,0.6,0.3,0.9s0.5,0.4,0.8,0.6
		s0.7,0.3,1.1,0.5c0.4,0.1,0.8,0.3,1.3,0.4s0.9,0.3,1.3,0.5c0.4,0.2,0.8,0.5,1.1,0.8c0.3,0.3,0.6,0.7,0.8,1.1c0.2,0.4,0.3,1,0.3,1.6
		c0,0.7-0.1,1.3-0.4,1.9s-0.6,1.1-1,1.6c-0.5,0.4-1,0.8-1.7,1s-1.4,0.4-2.3,0.4c-0.5,0-1,0-1.4-0.1c-0.5-0.1-0.9-0.2-1.4-0.4
		c-0.4-0.2-0.8-0.4-1.2-0.6C120.8,15.6,120.4,15.4,120.1,15.1z"/>
</g>
</svg>
