<?xml version="1.0" encoding="utf-8"?>
<!-- Generator: Adobe Illustrator 19.2.0, SVG Export Plug-In . SVG Version: 6.00 Build 0)  -->
<svg version="1.1" id="Layer_1" xmlns="http://www.w3.org/2000/svg" xmlns:xlink="http://www.w3.org/1999/xlink" x="0px" y="0px"
	 viewBox="0 0 477 150" style="enable-background:new 0 0 477 150;" xml:space="preserve">
<style type="text/css">
	.st0{fill:#0F6DB6;}
	.st1{fill:#25A7DF;}
	.st2{fill:none;}
</style>
<g>
	<path class="st0" d="M170.1,73.7v9.6h-11.6V55c0-3,2.3-5.1,5.5-5.1h11.8c3.8,0,6.8,1.2,8.9,3.6c2.1,2.4,3.1,5.1,3.1,8.3
		s-1,5.9-3.1,8.3c-2.1,2.4-5,3.6-8.9,3.6H170.1z M170.1,58.8v6.1h2.2c2.2,0,3.5-1.1,3.5-3s-1.3-3-3.5-3H170.1z"/>
	<path class="st0" d="M209.8,83.3l-1.1-5.2h-7.6l-1.1,5.2h-12.3l8.9-28.3c0.5-1.6,1.2-2.9,2.3-3.8c2-2,3.8-2.4,6-2.4
		c1.1,0,2.1,0.1,3.1,0.4c1.9,0.6,4.2,2.6,5.2,5.8l8.8,28.3H209.8z M204.9,60.3l-2.1,10h4.3L204.9,60.3z"/>
	<path class="st0" d="M229.8,49.9l4.1,8.6l4.1-8.6h12.4l-10.8,19.3v14.1h-11.6V69.2l-11.2-19.3H229.8z"/>
	<path class="st0" d="M253.6,54.9c0-2.8,2.3-5,5.5-5h16.7v8.9h-10.6v3.4h9.8v8.9h-9.8v3.3h10.6v8.9h-16.6c-3.4,0-5.5-2.3-5.5-5.1
		V54.9z"/>
	<path class="st0" d="M298.9,83.3l-5.2-9.9c-0.4-0.7-0.7-1.5-0.9-2.4v12.3h-11.6V55c0-2.9,2.3-5.1,5.5-5.1h11.3
		c3.9,0,6.9,1.1,8.9,3.3c2,2.2,3.1,4.8,3.1,8c0,2.5-1,4.8-2.5,6.3c-1.4,1.4-2.4,2.1-3.5,2.7l8,13.1H298.9z M292.8,58.8v9.7
		c0.4-1.8,1.4-3.1,3.1-3.8c1.6-0.6,2.4-1.6,2.4-2.9c0-1.4-0.9-2.9-3.5-2.9H292.8z"/>
	<path class="st1" d="M339.4,49.9v9.9h-5.5c-2,0-3.8,0.7-5.3,2.1c-1.4,1.4-2.2,3.2-2.2,5.3c0,4,1.9,6.1,5.8,6.2v-8.8h11.4v9.8
		c0,3.1-1.1,5.6-3.4,7.3c-2.3,1.7-5.2,2.6-8.9,2.6c-4.6,0-8.5-1.7-11.9-5c-3.3-3.4-5-7.4-5-12.1c0-8.2,5.2-17.4,19.5-17.4H339.4z"/>
	<path class="st1" d="M371.2,73.4v9.9h-16.6c-3.4,0-5.5-2.5-5.5-5.1V49.9h11.6v23.5H371.2z"/>
	<path class="st1" d="M397.6,83.3l-1.1-5.2h-7.6l-1.1,5.2h-12.3l8.9-28.3c0.5-1.6,1.2-2.9,2.3-3.8c2-2,3.8-2.4,6-2.4
		c1.1,0,2.1,0.1,3.1,0.4c1.9,0.6,4.2,2.6,5.2,5.8l8.8,28.3H397.6z M392.7,60.3l-2.1,10h4.3L392.7,60.3z"/>
	<path class="st1" d="M413.8,81.8v-9.5c0.3,0.2,0.8,0.5,1.4,0.8c0.6,0.3,1.7,0.8,3.4,1.3c1.6,0.5,3.2,0.8,4.6,0.8
		c2.2,0,3.3-0.7,3.3-2.2c0-1.3-1.1-1.8-3.5-2.4c-3.8-0.8-6.4-2.2-7.8-4c-1.3-1.8-2-4-2-6.5c0-3.5,1.3-6.3,4-8.3
		c2.6-1.9,6-2.9,9.9-2.9c1.7,0,3.4,0.2,5.1,0.5c1.7,0.3,3,0.6,3.9,1l1.3,0.5v8.9l-1.1-0.6c-0.5-0.2-1.5-0.6-3-1
		c-1.5-0.4-3-0.6-4.4-0.6c-2.1,0-3.2,0.7-3.2,2.1c0,1.2,0.8,1.6,3.4,2.2c3.1,0.7,5.5,1.9,7.2,3.4c1.7,1.5,2.6,3.9,2.6,7.2
		c0,7.2-5.4,11.9-14.6,11.9c-1.8,0-3.6-0.2-5.3-0.6c-1.7-0.4-3-0.9-3.8-1.3L413.8,81.8z"/>
	<path class="st1" d="M443.4,81.8v-9.5c0.3,0.2,0.8,0.5,1.4,0.8c0.6,0.3,1.7,0.8,3.4,1.3c1.6,0.5,3.2,0.8,4.6,0.8
		c2.2,0,3.3-0.7,3.3-2.2c0-1.3-1.1-1.8-3.5-2.4c-3.8-0.8-6.4-2.2-7.8-4c-1.3-1.8-2-4-2-6.5c0-3.5,1.3-6.3,4-8.3
		c2.6-1.9,6-2.9,9.9-2.9c1.7,0,3.4,0.2,5.1,0.5c1.7,0.3,3,0.6,3.9,1l1.3,0.5v8.9l-1.1-0.6c-0.5-0.2-1.5-0.6-3-1
		c-1.5-0.4-3-0.6-4.4-0.6c-2.1,0-3.2,0.7-3.2,2.1c0,1.2,0.8,1.6,3.4,2.2c3.1,0.7,5.5,1.9,7.2,3.4c1.7,1.5,2.6,3.9,2.6,7.2
		c0,7.2-5.4,11.9-14.6,11.9c-1.8,0-3.6-0.2-5.3-0.6c-1.7-0.4-3-0.9-3.8-1.3L443.4,81.8z"/>
</g>
<path class="st2" d="M39.9,42C28.7,42.3,19.4,50.2,17,60.7c-0.4,1.9-0.6,3.8-0.6,5.8c0.1,5,1.7,9.6,4.4,13.4
	C25.3,86.2,32.7,90.2,41,90c13.2-0.3,23.8-11.3,23.5-24.5C64.2,52.3,53.2,41.7,39.9,42z"/>
<path class="st1" d="M70.7,55.6C66.4,43,54.5,34,40.5,34c-17.7,0-32,14.3-32,32c0,0.1,0,0.2,0,0.4c0,0,0,0.1,0,0.1l0,42.6
	c0,3,2,5.7,4.9,6.3c4,0.8,7.5-2.2,7.5-6.1v-18c5.4,4.2,12.2,6.7,19.6,6.7c14,0,25.9-9,30.3-21.5c-1.1-3.1-1.7-6.3-1.8-9.7
	C68.9,62.9,69.5,59.1,70.7,55.6z M43.1,89.9c-9.1,1-17.3-3.2-22.2-10c-2.7-3.8-4.3-8.4-4.4-13.4c0-2,0.2-3.9,0.6-5.8
	C19.4,50.2,28.7,42.3,39.9,42c14.1-0.3,25.7,11.7,24.4,26.2C63.4,79.5,54.3,88.7,43.1,89.9z"/>
<path class="st0" d="M139.8,66.4c-0.2,0-0.4,0-0.6,0c-0.2,0-0.4,0-0.6,0c-0.5,0-1.1,0-1.6,0c-0.7,0-1.3,0-2,0c-0.8,0-1.5,0-2.3,0
	c-0.8,0-1.6,0-2.4,0c-0.8,0-1.6,0-2.5,0c-0.8,0-1.6,0-2.4,0c-0.7,0-1.5,0-2.2,0c-0.7,0-1.3,0-2,0c-0.5,0-1.1,0-1.6,0
	c-0.3,0-0.5,0-0.8,0c-1.5,0-2.8,0.8-3.5,2c-0.6,1-0.8,2.2-0.4,3.5c0.6,1.7,2.3,2.8,4,2.8h12.5c0,0,0,0.1-0.1,0.1
	c-3.4,8.8-11.9,15.1-21.8,15.3c-3.7,0.1-7.3-0.7-10.5-2.2c-3.9-1.8-7.2-4.5-9.6-8c-3.1-4.4-4.8-9.8-4.4-15.7
	c0.8-11.4,9.8-20.8,21.1-22.1c12.7-1.5,23.9,7.1,26.3,18.9c0.1,0.3,0.4,0.6,0.7,0.6h6.7c0.4,0,0.8-0.4,0.7-0.8
	c-2.6-16.2-17.4-28.3-34.6-26.7c-15.7,1.4-28.1,14.4-29,30.1c-0.4,7.8,2,15.1,6.3,20.9c0.2,0.3,0.2,0.7-0.1,1
	c-2.4,2.4-13.8,13.8-18.7,18.7c-2.1,2.1-2.6,5.5-1,8c2.3,3.4,6.9,3.7,9.6,1l19.5-19.5c0.2-0.2,0.6-0.3,0.9-0.1c4.6,2.5,9.8,4,15.4,4
	c14.5,0,27-10.2,30.9-23.4c0.4-1.4,0.7-2.9,0.8-4.3c0.1-0.6,0.1-1.2,0.1-1.7c0-0.7-0.1-1.6-0.7-2C140.2,66.5,140,66.4,139.8,66.4z"
	/>
<g>
	<path class="st0" d="M46.2,80c-0.7,0.2-1.1,1-0.8,1.7c0.2,0.7,1,1.1,1.7,0.8c5.4-1.8,9.5-6.2,11-11.7c1-3.8,0.6-7.8-1-11.3
		c-0.2-0.4-0.5-0.6-0.9-0.7c-0.3-0.1-0.6-0.1-0.9,0.1c-0.7,0.3-1,1.1-0.6,1.8c1.4,3,1.7,6.4,0.9,9.6C54.3,74.8,50.8,78.5,46.2,80z"
		/>
	<path class="st0" d="M40.7,80.7c-0.9-0.1-1.7-0.2-2.6-0.4c-0.7-0.2-1.4,0.2-1.6,0.9c-0.2,0.7,0.2,1.4,0.9,1.6c1,0.3,2,0.4,3,0.5
		c0.7,0.1,1.4-0.5,1.4-1.2c0-0.6-0.4-1.2-1-1.4C40.9,80.7,40.8,80.7,40.7,80.7z"/>
</g>
<g>
	<path class="st1" d="M103.1,51.3c0.7-0.2,1.1-1,0.8-1.7c-0.2-0.7-1-1.1-1.7-0.8c-5.4,1.8-9.5,6.2-11,11.7c-1,3.8-0.6,7.8,1,11.3
		c0.2,0.4,0.5,0.6,0.9,0.7c0.3,0.1,0.6,0.1,0.9-0.1c0.7-0.3,1-1.1,0.6-1.8c-1.4-3-1.7-6.4-0.9-9.6C95.1,56.5,98.5,52.8,103.1,51.3z"
		/>
	<path class="st1" d="M108.6,50.6c0.9,0.1,1.7,0.2,2.6,0.4c0.7,0.2,1.4-0.2,1.6-0.9c0.2-0.7-0.2-1.4-0.9-1.6c-1-0.3-2-0.4-3-0.5
		c-0.7-0.1-1.4,0.5-1.4,1.2c0,0.6,0.4,1.2,1,1.4C108.5,50.6,108.5,50.6,108.6,50.6z"/>
</g>
<g>
</g>
<g>
</g>
<g>
</g>
<g>
</g>
<g>
</g>
<g>
</g>
</svg>
