<?xml version="1.0" encoding="utf-8"?>
<!-- Generator: Adobe Illustrator 19.2.0, SVG Export Plug-In . SVG Version: 6.00 Build 0)  -->
<svg version="1.1" id="Layer_1" xmlns="http://www.w3.org/2000/svg" xmlns:xlink="http://www.w3.org/1999/xlink" x="0px" y="0px"
	 viewBox="0 0 477 150" style="enable-background:new 0 0 477 150;" xml:space="preserve">
<style type="text/css">
	.st0{fill:#0F6DB6;}
	.st1{fill:#25A7DF;}
	.st2{fill:none;}
</style>
<g>
	<path class="st0" d="M187.6,74v7.1H179V60.1c0-2.2,1.7-3.8,4.1-3.8h8.7c2.9,0,5,0.9,6.6,2.7c1.6,1.8,2.3,3.8,2.3,6.2
		s-0.8,4.4-2.3,6.2c-1.6,1.8-3.7,2.7-6.6,2.7H187.6z M187.6,62.9v4.5h1.7c1.6,0,2.6-0.8,2.6-2.3s-1-2.3-2.6-2.3H187.6z"/>
	<path class="st0" d="M217.1,81.1l-0.8-3.9h-5.7l-0.8,3.9h-9.1l6.6-21c0.4-1.2,0.9-2.2,1.7-2.9c1.5-1.5,2.9-1.8,4.4-1.8
		c0.8,0,1.6,0.1,2.3,0.3c1.4,0.4,3.2,1.9,3.9,4.3l6.6,21H217.1z M213.4,64l-1.6,7.4h3.2L213.4,64z"/>
	<path class="st0" d="M231.9,56.3l3,6.4l3.1-6.4h9.2l-8,14.3v10.5h-8.6V70.6l-8.3-14.3H231.9z"/>
	<path class="st0" d="M249.6,60c0-2.1,1.7-3.7,4.1-3.7H266v6.6h-7.9v2.6h7.3V72h-7.3v2.5h7.9v6.6h-12.3c-2.5,0-4.1-1.7-4.1-3.8V60z"
		/>
	<path class="st0" d="M283.2,81.1l-3.9-7.3c-0.3-0.6-0.6-1.1-0.7-1.8v9.2h-8.6V60.1c0-2.2,1.7-3.8,4.1-3.8h8.4
		c2.9,0,5.1,0.8,6.6,2.5c1.5,1.6,2.3,3.6,2.3,5.9c0,1.9-0.8,3.6-1.9,4.7c-1.1,1.1-1.8,1.6-2.6,2l6,9.7H283.2z M278.7,62.9v7.2
		c0.3-1.4,1.1-2.3,2.3-2.9c1.2-0.5,1.8-1.2,1.8-2.2c0-1-0.7-2.1-2.6-2.1H278.7z"/>
	<path class="st1" d="M313.3,56.3v7.4h-4.1c-1.5,0-2.9,0.5-3.9,1.6c-1.1,1-1.6,2.4-1.6,4c0,3,1.4,4.5,4.3,4.6v-6.6h8.5v7.3
		c0,2.3-0.9,4.2-2.6,5.4c-1.7,1.3-3.9,2-6.6,2c-3.4,0-6.3-1.3-8.8-3.7c-2.5-2.5-3.7-5.5-3.7-9c0-6.1,3.9-12.9,14.5-12.9H313.3z"/>
	<path class="st1" d="M337,73.7v7.4h-12.3c-2.6,0-4.1-1.9-4.1-3.8V56.3h8.6v17.5H337z"/>
	<path class="st1" d="M356.5,81.1l-0.8-3.9H350l-0.8,3.9h-9.1l6.6-21c0.4-1.2,0.9-2.2,1.7-2.9c1.5-1.5,2.9-1.8,4.4-1.8
		c0.8,0,1.6,0.1,2.3,0.3c1.4,0.4,3.2,1.9,3.9,4.3l6.6,21H356.5z M352.9,64l-1.6,7.4h3.2L352.9,64z"/>
	<path class="st1" d="M368.5,80v-7.1c0.3,0.2,0.6,0.4,1,0.6c0.4,0.3,1.3,0.6,2.5,1c1.2,0.4,2.4,0.6,3.4,0.6c1.6,0,2.4-0.6,2.4-1.7
		c0-1-0.9-1.4-2.6-1.8c-2.8-0.6-4.7-1.6-5.8-3c-1-1.4-1.5-3-1.5-4.9c0-2.6,1-4.7,3-6.2c2-1.4,4.4-2.2,7.4-2.2c1.3,0,2.5,0.1,3.8,0.4
		c1.3,0.3,2.3,0.5,2.9,0.7l1,0.4v6.6l-0.9-0.4c-0.4-0.2-1.1-0.4-2.2-0.8c-1.1-0.3-2.2-0.5-3.3-0.5c-1.6,0-2.4,0.5-2.4,1.6
		c0,0.9,0.6,1.2,2.5,1.7c2.3,0.6,4.1,1.4,5.4,2.6c1.3,1.1,2,2.9,2,5.3c0,5.3-4,8.8-10.9,8.8c-1.4,0-2.7-0.1-4-0.5
		c-1.3-0.3-2.2-0.7-2.8-1L368.5,80z"/>
	<path class="st1" d="M390.6,80v-7.1c0.3,0.2,0.6,0.4,1,0.6c0.4,0.3,1.3,0.6,2.5,1c1.2,0.4,2.4,0.6,3.4,0.6c1.6,0,2.4-0.6,2.4-1.7
		c0-1-0.9-1.4-2.6-1.8c-2.8-0.6-4.7-1.6-5.8-3c-1-1.4-1.5-3-1.5-4.9c0-2.6,1-4.7,3-6.2c2-1.4,4.4-2.2,7.4-2.2c1.3,0,2.5,0.1,3.8,0.4
		c1.3,0.3,2.3,0.5,2.9,0.7l1,0.4v6.6l-0.9-0.4c-0.4-0.2-1.1-0.4-2.2-0.8c-1.1-0.3-2.2-0.5-3.3-0.5c-1.6,0-2.4,0.5-2.4,1.6
		c0,0.9,0.6,1.2,2.5,1.7c2.3,0.6,4.1,1.4,5.4,2.6c1.3,1.1,2,2.9,2,5.3c0,5.3-4,8.8-10.9,8.8c-1.4,0-2.7-0.1-4-0.5
		c-1.3-0.3-2.2-0.7-2.8-1L390.6,80z"/>
</g>
<path class="st2" d="M91,50.4c-8.3,0.2-15.2,6.1-17,13.9c-0.3,1.4-0.5,2.8-0.4,4.3c0.1,3.7,1.3,7.1,3.3,9.9
	c3.3,4.7,8.8,7.6,14.9,7.5c9.8-0.2,17.7-8.4,17.4-18.2C109,58,100.8,50.2,91,50.4z"/>
<path class="st1" d="M113.8,60.5c-3.2-9.3-12.1-16-22.5-16c-13.1,0-23.8,10.6-23.8,23.8c0,0.1,0,0.2,0,0.3c0,0,0,0,0,0.1v31.7
	c0,2.2,1.5,4.3,3.7,4.7c3,0.6,5.6-1.7,5.6-4.5V87.1c4,3.1,9.1,5,14.5,5c10.4,0,19.2-6.7,22.5-16c-0.8-2.3-1.2-4.7-1.3-7.2
	C112.4,65.9,112.9,63.1,113.8,60.5z M93.3,86c-6.7,0.7-12.9-2.4-16.5-7.4c-2-2.8-3.2-6.2-3.3-9.9c0-1.5,0.1-2.9,0.4-4.3
	c1.8-7.8,8.7-13.7,17-13.9c10.5-0.2,19.1,8.7,18.1,19.5C108.4,78.3,101.6,85.1,93.3,86z"/>
<path class="st0" d="M165.1,68.5c-0.2,0-0.3,0-0.5,0c-0.2,0-0.3,0-0.5,0c-0.4,0-0.8,0-1.2,0c-0.5,0-1,0-1.5,0c-0.6,0-1.1,0-1.7,0
	c-0.6,0-1.2,0-1.8,0c-0.6,0-1.2,0-1.8,0c-0.6,0-1.2,0-1.8,0c-0.6,0-1.1,0-1.7,0c-0.5,0-1,0-1.5,0c-0.4,0-0.8,0-1.2,0
	c-0.2,0-0.4,0-0.6,0c-1.1,0-2.1,0.6-2.6,1.5c-0.4,0.7-0.6,1.7-0.3,2.6c0.4,1.3,1.7,2.1,3,2.1h9.3c0,0,0,0.1,0,0.1
	c-2.5,6.5-8.8,11.2-16.2,11.3c-2.8,0.1-5.4-0.5-7.8-1.6c-2.9-1.3-5.3-3.4-7.1-5.9c-2.3-3.2-3.6-7.3-3.2-11.6
	c0.6-8.4,7.3-15.4,15.7-16.4c9.4-1.1,17.7,5.3,19.6,14c0.1,0.3,0.3,0.4,0.5,0.4h4.9c0.3,0,0.6-0.3,0.5-0.6c-2-12-12.9-21-25.7-19.8
	c-11.6,1.1-20.9,10.7-21.5,22.4c-0.3,5.8,1.5,11.2,4.7,15.5c0.2,0.2,0.1,0.5,0,0.7c-1.8,1.8-10.2,10.2-13.9,13.9
	c-1.6,1.6-2,4.1-0.7,5.9c1.7,2.5,5.1,2.8,7.1,0.7l14.5-14.5c0.2-0.2,0.4-0.2,0.6-0.1c3.4,1.9,7.3,2.9,11.4,2.9
	c10.7,0,20-7.6,23-17.4c0.3-1,0.5-2.1,0.6-3.2c0.1-0.4,0.1-0.9,0.1-1.3c0-0.5-0.1-1.2-0.5-1.5C165.4,68.6,165.2,68.6,165.1,68.5z"/>
<g>
	<path class="st0" d="M95.6,78.6c-0.5,0.2-0.8,0.7-0.6,1.2c0.2,0.5,0.7,0.8,1.2,0.6c4-1.3,7.1-4.6,8.2-8.7c0.7-2.8,0.5-5.8-0.8-8.4
		c-0.1-0.3-0.4-0.5-0.6-0.5c-0.2-0.1-0.4,0-0.7,0.1c-0.5,0.2-0.7,0.8-0.5,1.3c1,2.2,1.3,4.7,0.6,7.1C101.6,74.8,99,77.5,95.6,78.6z"
		/>
	<path class="st0" d="M91.5,79.2c-0.6,0-1.3-0.2-1.9-0.3c-0.5-0.1-1.1,0.2-1.2,0.7c-0.1,0.5,0.2,1.1,0.7,1.2
		c0.7,0.2,1.5,0.3,2.3,0.4c0.5,0,1-0.4,1.1-0.9c0-0.5-0.3-0.9-0.7-1C91.6,79.2,91.6,79.2,91.5,79.2z"/>
</g>
<g>
	<path class="st1" d="M137.9,57.3c0.5-0.2,0.8-0.7,0.6-1.2c-0.2-0.5-0.7-0.8-1.2-0.6c-4,1.3-7.1,4.6-8.2,8.7
		c-0.7,2.8-0.5,5.8,0.8,8.4c0.1,0.3,0.4,0.5,0.6,0.5c0.2,0.1,0.4,0,0.7-0.1c0.5-0.2,0.7-0.8,0.5-1.3c-1-2.2-1.3-4.7-0.6-7.1
		C131.9,61.2,134.5,58.4,137.9,57.3z"/>
	<path class="st1" d="M142,56.8c0.6,0,1.3,0.2,1.9,0.3c0.5,0.1,1.1-0.2,1.2-0.7c0.1-0.5-0.2-1.1-0.7-1.2c-0.7-0.2-1.5-0.3-2.3-0.4
		c-0.5,0-1,0.4-1.1,0.9c0,0.5,0.3,0.9,0.7,1C141.8,56.8,141.9,56.8,142,56.8z"/>
</g>
<g>
</g>
<g>
</g>
<g>
</g>
<g>
</g>
<g>
</g>
<g>
</g>
</svg>
